<svg width="20" height="20" viewBox="0 0 20 20" fill="none" xmlns="http://www.w3.org/2000/svg">
<path d="M2 20C1.45 20 0.979167 19.7552 0.5875 19.2656C0.195833 18.776 0 18.1875 0 17.5V2.5C0 1.8125 0.195833 1.22396 0.5875 0.734375C0.979167 0.244792 1.45 0 2 0H18C18.55 0 19.0208 0.244792 19.4125 0.734375C19.8042 1.22396 20 1.8125 20 2.5V17.5C20 18.1875 19.8042 18.776 19.4125 19.2656C19.0208 19.7552 18.55 20 18 20H2ZM10 11.25L2 5V17.5H18V5L10 11.25ZM10 8.75L18 2.5H2L10 8.75ZM2 5V2.5V17.5V5Z" fill="black"/>
</svg>
